<?xml version="1.0" standalone="no"?>
<!DOCTYPE svg PUBLIC "-//W3C//DTD SVG 20010904//EN"
 "http://www.w3.org/TR/2001/REC-SVG-20010904/DTD/svg10.dtd">
<svg version="1.0" xmlns="http://www.w3.org/2000/svg"
 width="260.000000pt" height="260.000000pt" viewBox="0 0 260.000000 260.000000"
 preserveAspectRatio="xMidYMid meet">
<metadata>
Created by potrace 1.14, written by Peter Selinger 2001-2017
</metadata>
<g transform="translate(0.000000,260.000000) scale(0.100000,-0.100000)"
fill="#000000" stroke="none">
<path d="M0 1300 l0 -1300 1300 0 1300 0 0 1300 0 1300 -1300 0 -1300 0 0
-1300z m1491 621 c141 -49 211 -135 217 -268 5 -99 -18 -169 -77 -235 -25 -28
-58 -56 -74 -63 l-28 -12 58 -21 c77 -28 145 -96 174 -171 28 -74 23 -202 -10
-276 -43 -97 -143 -173 -278 -212 -46 -13 -120 -17 -355 -20 l-298 -5 0 657 0
657 303 -4 c284 -4 306 -5 368 -27z"/>
<path d="M1060 1590 l0 -172 143 4 c129 3 146 5 186 28 58 32 84 77 85 144 0
66 -25 112 -79 140 -34 18 -61 21 -187 24 l-148 4 0 -172z"/>
<path d="M1060 1030 l0 -202 153 5 c170 5 224 19 275 68 40 39 55 87 50 158
-5 72 -32 111 -96 143 -42 21 -63 23 -214 26 l-168 4 0 -202z"/>
</g>
</svg>
